<?xml version="1.0" encoding="UTF-8"?>
<svg version="1.1" xmlns="http://www.w3.org/2000/svg" width="509" height="428">
<path d="M0 0 C1.36916565 0.00539291 1.36916565 0.00539291 2.76599121 0.01089478 C3.72198715 0.01074875 4.67798309 0.01060272 5.66294861 0.01045227 C8.83916452 0.01115181 12.01532259 0.01894614 15.19152832 0.02676392 C17.387283 0.02862795 19.58303809 0.03005192 21.77879333 0.03105164 C27.5705784 0.03487798 33.36233857 0.04470926 39.15411377 0.05575562 C45.05915998 0.06596724 50.9642102 0.07054872 56.8692627 0.07559204 C68.46497679 0.08633142 80.06067236 0.10340923 91.65637207 0.12442017 C92.29574712 1.38655396 92.93319272 2.64966529 93.56983948 3.91317749 C94.10262056 4.96810961 94.10262056 4.96810961 94.64616489 6.04435349 C96.03787032 8.90994398 97.16686915 11.84285772 98.27746582 14.82754517 C98.73830566 16.05602173 99.19914551 17.28449829 99.6739502 18.55020142 C100.14757243 19.82482402 100.62087869 21.09956407 101.09387207 22.37442017 C104.92600813 32.68432035 104.92600813 32.68432035 109.06262207 42.87442017 C111.18837562 47.9089447 113.14850334 52.99262524 115.06652832 58.10879517 C115.51245583 59.29786469 115.51245583 59.29786469 115.96739197 60.51095581 C117.19750712 63.79673766 118.42472298 67.08358044 119.64782715 70.37197876 C120.55438415 72.80654034 121.46638115 75.23901124 122.37902832 77.67129517 C122.64893082 78.40169006 122.91883331 79.13208496 123.19691467 79.88461304 C124.81593581 84.18869602 126.67608342 88.26778627 128.77391052 92.35910034 C129.79546362 94.4026658 130.61701121 96.46446131 131.35949707 98.62442017 C131.61730957 99.3656311 131.87512207 100.10684204 132.14074707 100.87051392 C132.39340332 101.61430298 132.64605957 102.35809204 132.90637207 103.12442017 C133.17449707 103.89914673 133.44262207 104.67387329 133.71887207 105.47207642 C134.36958974 107.35450967 135.01369272 109.23922741 135.65637207 111.12442017 C137.8096013 107.89457633 138.97381209 104.69764897 140.21887207 101.06192017 C140.60522827 99.95131226 140.60522827 99.95131226 140.99938965 98.81826782 C141.88967303 96.25522847 142.77335381 93.68997113 143.65637207 91.12442017 C145.05113495 87.08238347 146.44738092 83.04086004 147.84387207 78.99942017 C148.22245361 77.90250854 148.60103516 76.80559692 148.99108887 75.67544556 C152.17967742 66.45528007 155.43878558 57.26080192 158.71917725 48.07299805 C161.44432887 40.43767745 164.1250809 32.78975699 166.73059082 25.11270142 C167.10809479 24.0028186 167.10809479 24.0028186 167.4932251 22.87051392 C168.712645 19.28367103 169.92570733 15.69488673 171.12854004 12.10244751 C171.56597567 10.81151766 172.0036268 9.5206608 172.44152832 8.22988892 C172.82188232 7.09704468 173.20223633 5.96420044 173.59411621 4.79702759 C174.65637207 2.12442017 174.65637207 2.12442017 176.65637207 0.12442017 C179.69995733 -0.06399738 182.65192442 -0.12721064 185.69592285 -0.10263062 C186.63255768 -0.10292267 187.5691925 -0.10321472 188.53421021 -0.10351562 C191.64012818 -0.10211868 194.74580833 -0.08654032 197.85168457 -0.07089233 C200.00116851 -0.0671635 202.15065414 -0.06431592 204.30014038 -0.06231689 C209.96535919 -0.05467023 215.63047591 -0.03501287 221.2956543 -0.01290894 C227.07343159 0.00752726 232.85122533 0.01668005 238.62902832 0.02676392 C249.97152116 0.04823205 261.31393814 0.08238043 272.65637207 0.12442017 C273.03855974 1.78056674 273.37032309 3.44899041 273.65637207 5.12442017 C272.11852958 6.66226266 270.57002711 6.39263961 268.42980957 6.55410767 C267.56227051 6.62758423 266.69473145 6.70106079 265.80090332 6.77676392 C263.97845068 6.92327986 262.15552653 7.06406289 260.33215332 7.19863892 C251.31700849 7.95519742 251.31700849 7.95519742 244.03963852 12.92585754 C239.21801933 20.58933535 240.37032598 31.73439805 240.39758301 40.41738892 C240.39486641 41.81986675 240.39130176 43.22234315 240.38696289 44.62481689 C240.37791602 48.40167934 240.38135103 52.17843141 240.38772106 55.95529556 C240.39282127 59.92728195 240.38807852 63.89925954 240.38494873 67.87124634 C240.38132072 74.5386625 240.38607748 81.20603421 240.39562988 87.8734436 C240.40651218 95.55733014 240.40298578 103.2411105 240.39197707 110.92499447 C240.38287087 117.54869711 240.38163516 124.17236798 240.38685441 130.79607487 C240.38995585 134.74053243 240.39043412 138.68494026 240.38378143 142.62939453 C240.37795986 146.33953135 240.38209185 150.04953266 240.39356995 153.759655 C240.39743096 155.75295582 240.39157215 157.74626825 240.38531494 159.73956299 C240.21592719 172.1827922 240.21592719 172.1827922 244.21887207 183.68692017 C252.20284574 188.39541746 263.58482001 188.45740964 272.41418457 186.51895142 C274.56505021 185.81974262 276.59966893 185.06241448 278.65637207 184.12442017 C279.31379395 183.88465454 279.97121582 183.64488892 280.64855957 183.39785767 C286.61131875 179.61602986 288.58626051 171.60059726 290.86730957 165.32363892 C291.45009171 163.74373421 291.45009171 163.74373421 292.04464722 162.13191223 C296.31751589 150.46679838 300.31529456 138.70905829 304.28137207 126.93692017 C304.99977601 124.81505818 305.71852569 122.69331321 306.43762207 120.57168579 C311.66225445 105.14216409 316.81346939 89.68840052 321.9463501 74.22816467 C330.18869269 49.40238024 338.66475064 24.69081444 347.65637207 0.12442017 C357.55637207 0.12442017 367.45637207 0.12442017 377.65637207 0.12442017 C384.54831212 15.05695694 384.54831212 15.05695694 386.87512207 21.48770142 C387.27386536 22.56848213 387.27386536 22.56848213 387.68066406 23.6710968 C388.51089076 25.92457581 389.33389606 28.18060245 390.15637207 30.43692017 C390.70404617 31.92864139 391.25222179 33.42017858 391.80090332 34.91152954 C392.61999831 37.13839398 393.43861929 39.36542224 394.25514221 41.5932312 C396.02291037 46.41500322 397.81302161 51.22782882 399.62121582 56.03457642 C402.72067719 64.27624585 405.77282633 72.53508606 408.8157959 80.79776001 C409.72078673 83.25461806 410.62702138 85.71101496 411.5333252 88.16738892 C414.57300148 96.41358054 417.57416237 104.6709724 420.5189209 112.9515686 C422.28642623 117.8819183 424.12217498 122.78578107 425.96887207 127.68692017 C426.35349609 128.7085022 426.73812012 129.73008423 427.13439941 130.78262329 C427.92416115 132.87871641 428.71452039 134.97458452 429.50549316 137.07022095 C430.59841192 139.97060569 431.68466316 142.87340587 432.76965332 145.77676392 C435.83081434 153.93642516 438.95411189 162.05852721 442.40637207 170.06192017 C442.67594727 170.69420532 442.94552246 171.32649048 443.2232666 171.97793579 C445.87835634 178.00464595 448.41434056 183.38210507 454.65637207 186.12442017 C457.57058121 186.86423043 460.49847653 187.35627693 463.46887207 187.81192017 C464.65126465 188.00624634 464.65126465 188.00624634 465.85754395 188.20449829 C467.7889702 188.52054986 469.72248652 188.82378305 471.65637207 189.12442017 C472.78137207 192.87442017 472.78137207 192.87442017 471.65637207 195.12442017 C429.74637207 195.12442017 387.83637207 195.12442017 344.65637207 195.12442017 C344.65637207 193.14442017 344.65637207 191.16442017 344.65637207 189.12442017 C345.23604736 189.04401489 345.81572266 188.96360962 346.41296387 188.88076782 C349.0575621 188.51018044 351.70067879 188.12989366 354.34387207 187.74942017 C355.25588379 187.62309204 356.16789551 187.49676392 357.10754395 187.36660767 C361.54280317 186.72147905 365.57873788 186.09885356 369.65637207 184.12442017 C372.4976749 170.62823173 365.51536792 156.25311555 361.24230957 143.58145142 C360.98498047 142.81808472 360.72765137 142.05471802 360.46252441 141.26821899 C359.56473806 138.76818715 359.56473806 138.76818715 357.65637207 135.12442017 C341.81637207 134.79442017 325.97637207 134.46442017 309.65637207 134.12442017 C308.17137207 140.06442017 308.17137207 140.06442017 306.65637207 146.12442017 C305.64868252 149.29037017 304.62475191 152.42738148 303.53137207 155.56192017 C301.15912855 162.40671063 299.50358461 168.43626704 299.34387207 175.74942017 C299.30648926 176.87606079 299.26910645 178.00270142 299.23059082 179.16348267 C299.36654674 182.19597301 299.36654674 182.19597301 301.47277832 183.95645142 C309.1969213 188.08796975 319.08813995 188.14697621 327.65637207 189.12442017 C327.69909307 190.79053922 327.69701039 192.45824901 327.65637207 194.12442017 C326.00452707 195.77626517 324.02819363 195.24900304 321.8207922 195.25816357 C321.12401647 195.25593285 320.42724073 195.25370213 319.70935059 195.25140381 C318.60656816 195.25374379 318.60656816 195.25374379 317.4815073 195.25613105 C314.99941104 195.26014372 312.51737512 195.25695039 310.03527832 195.2538147 C308.2633765 195.25516862 306.49147497 195.2569485 304.71957397 195.25912476 C299.89326671 195.26370016 295.06698072 195.26190909 290.24067307 195.25874567 C285.2015858 195.25622262 280.16250042 195.25855945 275.12341309 195.26013184 C266.65946117 195.26195369 258.19551797 195.2595468 249.73156738 195.25479126 C239.93121295 195.24934861 230.13087932 195.25111125 220.3305254 195.25661767 C211.93225583 195.26114834 203.53399255 195.26179957 195.13572216 195.259179 C190.11274563 195.25761597 185.08977889 195.25742316 180.06680298 195.26071548 C175.34567409 195.26359354 170.62457216 195.26161973 165.9034462 195.25582123 C164.16552907 195.25449327 162.4276097 195.25488834 160.68969345 195.25708389 C158.32756234 195.25979402 155.96551899 195.25641599 153.60339355 195.25140381 C152.90661782 195.25363453 152.20984209 195.25586525 151.49195194 195.25816357 C146.77052194 195.23857003 146.77052194 195.23857003 145.65637207 194.12442017 C145.61573375 192.45824901 145.61365107 190.79053922 145.65637207 189.12442017 C149.53540531 187.18490355 154.5961378 187.48800979 158.9161377 187.22598267 C163.12199523 186.85396578 165.21209378 186.4586373 168.66809082 183.85879517 C171.83450985 179.50419139 171.78242759 175.32646643 171.81459045 170.05635071 C171.82437927 168.8378392 171.83416809 167.6193277 171.84425354 166.3638916 C171.85015687 165.02194253 171.85596737 163.67999305 171.86169434 162.33804321 C171.87127916 160.91860167 171.88128959 159.49916295 171.89169312 158.07972717 C171.91868281 154.23305656 171.93972443 150.38637376 171.9596951 146.53966117 C171.98159135 142.51709517 172.00896221 138.4945665 172.03575134 134.47203064 C172.08562908 126.85778463 172.13058612 119.24351785 172.17377371 111.62923127 C172.22318816 102.95936447 172.27809067 94.28953514 172.3334533 85.6197046 C172.44719781 67.78797793 172.55405321 49.95621588 172.65637207 32.12442017 C172.45999083 32.71452535 172.26360958 33.30463053 172.06127739 33.91261768 C171.15561455 36.63346552 170.24950163 39.35416328 169.34338379 42.07485962 C168.8801899 43.46674877 168.8801899 43.46674877 168.40763855 44.8867569 C165.57902941 53.37805034 162.6912752 61.84820998 159.78137207 70.31192017 C159.25852475 71.83541816 158.73573954 73.35893747 158.2130127 74.88247681 C155.56427239 82.59827263 152.89996525 90.30840557 150.21765137 98.01260376 C145.69035266 111.02064628 141.31427679 124.07601443 136.99230957 137.1534729 C133.67032125 147.18899068 130.20937705 157.16848491 126.65637207 167.12442017 C126.18635004 168.44430749 125.71637837 169.76421274 125.24645996 171.08413696 C123.92753214 174.78605544 122.60477203 178.48659793 121.28137207 182.18692017 C120.82691426 183.45839356 120.37248714 184.72987792 119.91809082 186.00137329 C118.83114971 189.04249576 117.74390941 192.08351087 116.65637207 195.12442017 C113.88392193 195.25929612 111.11800119 195.35842823 108.34387207 195.43692017 C107.16534668 195.49976196 107.16534668 195.49976196 105.9630127 195.56387329 C104.82702637 195.58804321 104.82702637 195.58804321 103.66809082 195.61270142 C102.62334595 195.65197754 102.62334595 195.65197754 101.55749512 195.69204712 C99.65637207 195.12442017 99.65637207 195.12442017 98.06115723 192.97866821 C96.60271419 190.01539786 95.34788445 187.05324526 94.16809082 183.96817017 C93.70854004 182.77965454 93.24898926 181.59113892 92.7755127 180.36660767 C92.29778865 179.11940726 91.82057646 177.87201066 91.34387207 176.62442017 C88.63714273 169.55285317 85.90849662 162.54089582 82.68371582 155.68692017 C79.60431456 149.13318232 76.94377023 142.44710731 74.33370972 135.69802856 C72.93421319 132.08108778 71.52084173 128.46959589 70.10559082 124.85879517 C69.81857803 124.12646667 69.53156525 123.39413818 69.2358551 122.63961792 C66.36677273 115.34465095 63.36580668 108.1071203 60.34387207 100.87442017 C56.47271639 91.60754644 52.76974963 82.30112197 49.24328613 72.89810181 C47.34722703 67.86551953 45.34144843 62.93163055 43.02770996 58.07315063 C41.29223582 54.34143323 39.64734265 50.57321395 38.00402832 46.80020142 C37.68115845 46.06048096 37.35828857 45.3207605 37.02563477 44.55862427 C36.23523491 42.74750452 35.44571425 40.93600113 34.65637207 39.12442017 C34.60956127 55.77121484 34.57433885 72.41798802 34.55274773 89.06483269 C34.5424542 96.79500408 34.52843082 104.52513447 34.50549316 112.25527954 C34.4855002 118.99628132 34.47264167 125.73725339 34.46819508 132.478284 C34.46559766 136.04450862 34.4595331 139.61064828 34.44491196 143.17684555 C34.42868649 147.1670578 34.42839616 151.15712422 34.42932129 155.14736938 C34.42213074 156.3176619 34.41494019 157.48795441 34.40753174 158.69371033 C34.43996944 172.36331774 34.43996944 172.36331774 40.65637207 184.12442017 C44.09236407 185.79211653 47.09460692 186.42665185 50.88684082 186.68692017 C51.85428223 186.76168579 52.82172363 186.83645142 53.81848145 186.91348267 C55.84707075 187.05492078 57.87571755 187.19553651 59.90441895 187.33535767 C60.86799316 187.41012329 61.83156738 187.48488892 62.82434082 187.56192017 C63.70372314 187.6225061 64.58310547 187.68309204 65.48913574 187.74551392 C67.65637207 188.12442017 67.65637207 188.12442017 69.65637207 190.12442017 C69.32637207 191.77442017 68.99637207 193.42442017 68.65637207 195.12442017 C43.24637207 195.12442017 17.83637207 195.12442017 -8.34362793 195.12442017 C-8.67362793 193.47442017 -9.00362793 191.82442017 -9.34362793 190.12442017 C-6.48722895 187.26802119 -3.55017242 187.75013664 0.28137207 187.62442017 C12.01433512 187.25656349 12.01433512 187.25656349 21.65637207 181.12442017 C27.153444 171.70086829 25.80568289 159.2943844 25.80163574 148.72769165 C25.80499435 147.44638367 25.80835297 146.16507568 25.81181335 144.84494019 C25.82055501 141.36774549 25.82298713 137.89057547 25.82362914 134.41337085 C25.82434474 132.23358139 25.82648849 130.05379802 25.82912636 127.87401009 C25.83834393 120.24922417 25.84246536 112.62445561 25.8416748 104.99966431 C25.84107348 97.92299317 25.85164522 90.84639813 25.86741847 83.76974624 C25.88053654 77.66407144 25.88585699 71.5584214 25.8852194 65.45273262 C25.88496586 61.81903617 25.887737 58.18540763 25.89839745 54.55172539 C25.90996818 50.49834937 25.90530559 46.44514226 25.89929199 42.39175415 C25.9049115 41.2065065 25.91053101 40.02125885 25.9163208 38.8000946 C25.88193201 29.64342908 25.82035697 20.27492886 20.36340332 12.56192017 C14.94471888 7.99881748 8.5003407 7.4990343 1.71887207 6.93692017 C0.84424316 6.8550647 -0.03038574 6.77320923 -0.93151855 6.68887329 C-3.06795516 6.4904065 -5.20568677 6.30596362 -7.34362793 6.12442017 C-7.38634893 4.45830111 -7.38426625 2.79059132 -7.34362793 1.12442017 C-5.42216019 -0.79704757 -2.55644478 0.00425474 0 0 Z M173.65637207 27.12442017 C174.65637207 29.12442017 174.65637207 29.12442017 174.65637207 29.12442017 Z M332.65637207 66.12442017 C332.18795898 67.49993042 332.18795898 67.49993042 331.71008301 68.90322876 C330.53484104 72.35205526 329.35610702 75.79968017 328.1763916 79.24697876 C327.66927461 80.7303844 327.16306632 82.21410105 326.65783691 83.69815063 C324.10390051 91.19812624 321.52721043 98.65449207 318.51867676 105.98721313 C317.18757797 109.28631812 316.04195823 112.62771066 314.90637207 115.99942017 C314.68594238 116.63621704 314.4655127 117.27301392 314.23840332 117.92910767 C313.13332385 121.22375453 312.65637207 123.5967451 312.65637207 127.12442017 C326.51637207 127.12442017 340.37637207 127.12442017 354.65637207 127.12442017 C353.4305464 121.60820464 352.36212514 116.87590564 350.48449707 111.68301392 C350.07014404 110.52962524 349.65579102 109.37623657 349.22888184 108.18789673 C348.79245361 106.99132446 348.35602539 105.7947522 347.90637207 104.56192017 C347.45898682 103.32280884 347.01160156 102.08369751 346.55065918 100.80703735 C343.32177745 91.88634008 340.02889096 82.9917284 336.65637207 74.12442017 C335.65402876 71.45862612 334.65509837 68.79157262 333.65637207 66.12442017 C333.32637207 66.12442017 332.99637207 66.12442017 332.65637207 66.12442017 Z " fill="#6E4E27" transform="translate(21.3436279296875,11.875579833984375)"/>
<path d="M0 0 C0.7425 0.226875 1.485 0.45375 2.25 0.6875 C1.58289824 4.57736096 -0.27891596 7.46838403 -2.3125 10.8125 C-4.84089185 14.50458738 -4.84089185 14.50458738 -5.75 18.6875 C-3.61374461 19.9845122 -2.31533645 20.74380841 0.2109375 20.4921875 C2.89648046 19.43237553 3.60879785 18.18705939 5.125 15.75 C5.63546875 14.94820312 6.1459375 14.14640625 6.671875 13.3203125 C7.7516454 11.51891337 8.80256669 9.6999922 9.828125 7.8671875 C10.33859375 6.96226562 10.8490625 6.05734375 11.375 5.125 C11.83132813 4.27808594 12.28765625 3.43117187 12.7578125 2.55859375 C13.25023437 1.94113281 13.74265625 1.32367188 14.25 0.6875 C15.57 0.6875 16.89 0.6875 18.25 0.6875 C17.76051418 6.60017797 15.94849319 10.91296968 13.1875 16.125 C12.81044922 16.85654297 12.43339844 17.58808594 12.04492188 18.34179688 C11.12240704 20.12843953 10.1874688 21.90865829 9.25 23.6875 C11.56 24.0175 13.87 24.3475 16.25 24.6875 C16.89066406 23.553125 17.53132813 22.41875 18.19140625 21.25 C27.0736627 5.72067716 27.0736627 5.72067716 33.25 -0.3125 C34.9 0.3475 36.55 1.0075 38.25 1.6875 C36.76380864 5.79548536 34.75384461 9.30182074 32.4375 13 C32.08365234 13.5674292 31.72980469 14.1348584 31.36523438 14.71948242 C30.33031041 16.37767003 29.29024946 18.03264809 28.25 19.6875 C27.24984373 21.29156924 26.24981244 22.89571643 25.25 24.5 C24.59 25.551875 23.93 26.60375 23.25 27.6875 C25.31756277 30.4847908 26.39440371 30.71442273 29.9375 31.375 C31.030625 31.478125 32.12375 31.58125 33.25 31.6875 C34.07996421 30.02757159 34.90978938 28.36757355 35.73901367 26.70727539 C36.45949431 25.26778883 37.1823463 23.8294869 37.9074707 22.39233398 C39.71630025 18.79960516 41.48975562 15.20056343 43.1640625 11.54296875 C43.6135022 10.58318115 43.6135022 10.58318115 44.07202148 9.60400391 C44.89710281 7.83653772 45.70487175 6.0610205 46.51171875 4.28515625 C48.25 1.6875 48.25 1.6875 50.95703125 0.80859375 C51.71371094 0.76863281 52.47039062 0.72867188 53.25 0.6875 C54.25 3.6875 54.25 3.6875 53.09423828 6.44311523 C52.21614502 8.0780896 52.21614502 8.0780896 51.3203125 9.74609375 C51.0105246 10.33165543 50.70073669 10.9172171 50.38156128 11.52052307 C49.38877156 13.39386747 48.38275437 15.25966924 47.375 17.125 C46.37638283 18.98772181 45.38072229 20.8519053 44.38986206 22.71876526 C43.487553 24.41661116 42.57626731 26.10967739 41.66455078 27.80249023 C40.50786885 30.16157039 39.72715775 32.1244258 39.25 34.6875 C41.9149267 36.43806659 41.9149267 36.43806659 45.25 37.6875 C48.43810561 37.04166491 48.43810561 37.04166491 51.25 35.6875 C52.735 35.1925 52.735 35.1925 54.25 34.6875 C54.25 36.3375 54.25 37.9875 54.25 39.6875 C55.44625 40.079375 56.6425 40.47125 57.875 40.875 C58.54789062 41.09542969 59.22078125 41.31585938 59.9140625 41.54296875 C63.45069257 41.76179034 65.290736 40.5838759 68.25 38.6875 C70.40886035 36.15185741 72.27988918 33.54404026 74.16796875 30.80664062 C75.15675664 29.40557267 76.19937054 28.04281201 77.25 26.6875 C77.91 26.6875 78.57 26.6875 79.25 26.6875 C78.65470471 30.50560085 77.5106562 33.4155081 75.6875 36.8125 C73.66320509 40.52994516 73.66320509 40.52994516 73.25 44.6875 C76.07013776 41.35556923 78.1674059 38.170922 80.01953125 34.22265625 C80.51291992 33.18101318 81.00630859 32.13937012 81.51464844 31.06616211 C82.02543945 29.97182861 82.53623047 28.87749512 83.0625 27.75 C84.12544522 25.50219877 85.18924292 23.25480046 86.25390625 21.0078125 C86.7658252 19.9240332 87.27774414 18.84025391 87.80517578 17.72363281 C90.52926589 11.99926907 93.37865962 6.33918758 96.25 0.6875 C97.9 0.6875 99.55 0.6875 101.25 0.6875 C102.52055876 4.49917627 101.753841 5.50618698 100.1875 9.140625 C99.72311523 10.22843262 99.25873047 11.31624023 98.78027344 12.43701172 C98.2752832 13.59217285 97.77029297 14.74733398 97.25 15.9375 C96.74758789 17.10941895 96.24517578 18.28133789 95.72753906 19.48876953 C92.45581282 27.07494066 89.02561765 34.55772382 85.296875 41.9296875 C84.07926892 44.55702234 84.07926892 44.55702234 84.41015625 46.9921875 C85.18337861 48.99717519 85.18337861 48.99717519 87.9375 49.9375 C91.17282373 50.67002613 93.94690238 50.84479036 97.25 50.6875 C104.21481247 37.82482506 108.21645822 23.85555066 112.5715332 9.95483398 C112.9037085 8.90110596 113.23588379 7.84737793 113.578125 6.76171875 C113.8762207 5.80869873 114.17431641 4.85567871 114.48144531 3.8737793 C115.25 1.6875 115.25 1.6875 116.25 0.6875 C117.95772358 0.60036169 119.66898649 0.58049993 121.37890625 0.58984375 C122.93061523 0.59467773 122.93061523 0.59467773 124.51367188 0.59960938 C125.60228516 0.60798828 126.69089844 0.61636719 127.8125 0.625 C129.4512207 0.63176758 129.4512207 0.63176758 131.12304688 0.63867188 C133.83208495 0.65050174 136.54101599 0.66698457 139.25 0.6875 C148.53026601 27.96514662 148.53026601 27.96514662 145.34521484 34.5612793 C142.25528324 39.59707359 138.78286223 43.24025052 134.3125 47.0625 C121.96106811 58.1813466 118.36962785 70.50768638 116.3125 86.625 C113.85682485 103.30312706 98.73478162 116.12055524 85.90478516 125.73071289 C79.20373627 130.692882 72.3600905 135.32773104 65.25 139.6875 C64.24710937 140.32171875 63.24421875 140.9559375 62.2109375 141.609375 C56.51082403 145.18754842 50.79099075 148.48414433 44.8125 151.5625 C35.44869364 156.42766331 26.71779088 162.3396376 19 169.5625 C11.9583997 175.85974509 4.55719076 177.27040388 -4.71875 176.9453125 C-12.50686869 176.28292096 -19.478441 173.4410683 -26.75 170.6875 C-27.00652344 171.27402344 -27.26304687 171.86054688 -27.52734375 172.46484375 C-28.86586134 174.89812334 -30.25516782 176.3921667 -32.3125 178.25 C-32.93253906 178.82878906 -33.55257813 179.40757812 -34.19140625 180.00390625 C-42.13129118 185.22847176 -50.19798741 185.01628285 -59.4375 184.75 C-61.81618644 184.6897963 -64.19512454 184.63869794 -66.57421875 184.59765625 C-67.61666748 184.56808838 -68.65911621 184.53852051 -69.7331543 184.50805664 C-73.04138781 184.70483188 -75.64055751 185.57939899 -78.75 186.6875 C-83.66261233 187.00945651 -87.70356459 186.32708205 -92.4375 185.0625 C-99.64942827 183.41185545 -106.97245014 183.29872507 -113.75 186.6875 C-122.11132607 187.43971349 -129.89594358 185.90322102 -138 184 C-139.19004639 183.72599365 -140.38009277 183.4519873 -141.60620117 183.16967773 C-154.29060673 180.18577369 -165.96145109 176.4644381 -177.43359375 170.23828125 C-183.104735 167.58640484 -188.68555334 166.58051065 -194.88818359 166.05639648 C-208.92364053 164.85080752 -218.23243376 160.08858613 -228.75 150.6875 C-229.50539063 150.05199219 -230.26078125 149.41648437 -231.0390625 148.76171875 C-239.23334455 141.84107979 -244.82117502 134.92459463 -246.21875 124.03515625 C-246.54975502 119.58038033 -246.75 115.15430349 -246.75 110.6875 C-247.760625 110.749375 -248.77125 110.81125 -249.8125 110.875 C-254.21898771 110.66516725 -256.90606683 109.83123196 -260.75 107.6875 C-262.99681394 104.42102379 -264.64562112 100.89535814 -266.34960938 97.32202148 C-269.40966801 90.93577843 -272.72701443 84.9552796 -276.75 79.125 C-282.77517176 70.38798143 -287.97538022 61.24083611 -291.9375 51.375 C-293.14318717 48.57401497 -293.49790034 47.85335504 -296.125 46.125 C-298.81072534 45.58542975 -298.81072534 45.58542975 -301.8125 45.8125 C-304.75 45.6875 -304.75 45.6875 -307 44.1875 C-311.68100836 37.5003452 -311.54519458 27.87045038 -312.375 20 C-312.5090625 18.79021484 -312.643125 17.58042969 -312.78125 16.33398438 C-313.93270387 5.70653513 -313.93270387 5.70653513 -313.75 1.6875 C-311.83710382 -0.22539618 -308.32775917 0.52374173 -305.72265625 0.51953125 C-304.66648354 0.51453865 -304.66648354 0.51453865 -303.588974 0.50944519 C-302.09683894 0.50437345 -300.6046925 0.50203694 -299.11254883 0.50219727 C-296.82549393 0.50001241 -294.53892247 0.48186451 -292.25195312 0.46289062 C-290.80468916 0.45995646 -289.35742289 0.45797182 -287.91015625 0.45703125 C-287.22365494 0.44984573 -286.53715363 0.44266022 -285.82984924 0.43525696 C-280.97882369 0.45867631 -280.97882369 0.45867631 -278.75 2.6875 C-278.00626479 4.8677119 -277.34261473 7.07547945 -276.71875 9.29296875 C-276.32229806 10.67236264 -275.92496292 12.05150292 -275.52685547 13.43041992 C-275.31913513 14.15587006 -275.11141479 14.88132019 -274.8973999 15.62875366 C-268.10250946 39.20459562 -259.63620071 62.60364861 -243.75 81.6875 C-243.09644531 82.52410156 -242.44289063 83.36070312 -241.76953125 84.22265625 C-232.69292318 95.71307994 -222.32732753 105.74475662 -210.75 114.6875 C-209.7290625 115.52667969 -209.7290625 115.52667969 -208.6875 116.3828125 C-206.11611203 118.4111056 -204.3845143 119.65798771 -201.0625 119.8125 C-198.07482577 118.35903686 -196.74501415 116.29991852 -194.75 113.6875 C-207.98140173 101.86618444 -207.98140173 101.86618444 -222.0546875 91.12890625 C-222.61414063 90.65324219 -223.17359375 90.17757812 -223.75 89.6875 C-223.75 88.6975 -223.75 87.7075 -223.75 86.6875 C-220.69065949 87.29498376 -218.63082201 88.25254349 -216.09765625 90.05859375 C-215.40921631 90.54618164 -214.72077637 91.03376953 -214.01147461 91.53613281 C-212.92298218 92.32262207 -212.92298218 92.32262207 -211.8125 93.125 C-211.06556885 93.65834961 -210.3186377 94.19169922 -209.54907227 94.74121094 C-202.82852691 99.56768677 -196.25431667 104.5745415 -189.75 109.6875 C-185.80626379 108.12093504 -183.5985289 105.57983152 -180.8125 102.4375 C-179.93722656 101.45652344 -179.06195313 100.47554688 -178.16015625 99.46484375 C-176.31417277 97.33762453 -174.51335737 95.19498514 -172.75 93 C-172.09 92.236875 -171.43 91.47375 -170.75 90.6875 C-170.09 90.6875 -169.43 90.6875 -168.75 90.6875 C-168.4096875 89.8521875 -168.4096875 89.8521875 -168.0625 89 C-166.37449964 86.02590412 -164.28323483 83.96741135 -161.75 81.6875 C-161.09 81.6875 -160.43 81.6875 -159.75 81.6875 C-158.52776712 85.35419865 -159.09194416 87.04696798 -159.96484375 90.7890625 C-160.23876953 92.00207031 -160.51269531 93.21507812 -160.79492188 94.46484375 C-161.3846152 97.00684781 -161.97573459 99.54852151 -162.56835938 102.08984375 C-164.06775101 108.74054105 -165.43229849 114.86451515 -164.75 121.6875 C-162.67003169 124.40493421 -160.51627557 125.34916831 -157.31713867 126.41748047 C-156.42157761 126.72144745 -155.52601654 127.02541443 -154.60331726 127.33859253 C-153.15031975 127.81680954 -153.15031975 127.81680954 -151.66796875 128.3046875 C-150.66220291 128.64372101 -149.65643707 128.98275452 -148.62019348 129.33206177 C-145.39536985 130.41725279 -142.16663509 131.49021433 -138.9375 132.5625 C-135.75576826 133.62782814 -132.57488426 134.69565861 -129.39407349 135.76373291 C-127.34045657 136.45307498 -125.28648543 137.14136273 -123.23214722 137.82855225 C-115.70184695 140.35142382 -108.20957887 142.96250209 -100.75 145.6875 C-100.75 146.3475 -100.75 147.0075 -100.75 147.6875 C-123.59349673 147.59980903 -145.73486537 137.73274214 -166.75 129.6875 C-167.4009259 130.93485567 -168.04551669 132.18551832 -168.6875 133.4375 C-169.04714844 134.13359375 -169.40679687 134.8296875 -169.77734375 135.546875 C-170.70558182 137.58974433 -171.28166578 139.49865376 -171.75 141.6875 C-170.94304687 141.8834375 -170.13609375 142.079375 -169.3046875 142.28125 C-159.65224381 144.65849728 -150.04154945 147.18507315 -140.4375 149.75 C-139.16310059 150.0903125 -137.88870117 150.430625 -136.57568359 150.78125 C-130.96143466 152.28364435 -125.3520627 153.7980849 -119.75390625 155.359375 C-99.24165516 160.93616092 -75.68541151 160.06396772 -54.75 157.375 C-53.3731604 157.19868042 -53.3731604 157.19868042 -51.96850586 157.01879883 C-43.72797359 155.86608735 -43.72797359 155.86608735 -36.75 151.6875 C-36.62814857 150.33766252 -36.57233169 148.98175299 -36.54467773 147.62670898 C-36.52473251 146.76589218 -36.50478729 145.90507538 -36.48423767 145.01817322 C-36.46752518 144.08276199 -36.45081268 143.14735077 -36.43359375 142.18359375 C-36.41281265 141.23057877 -36.39203156 140.27756378 -36.37062073 139.29566956 C-36.30501823 136.2388559 -36.24619082 133.18195344 -36.1875 130.125 C-36.14432494 128.05793337 -36.10071099 125.99087586 -36.05664062 123.92382812 C-35.94932599 118.84514405 -35.84808909 113.7663703 -35.75 108.6875 C-34.1 108.3575 -32.45 108.0275 -30.75 107.6875 C-30.19570313 108.60273438 -29.64140625 109.51796875 -29.0703125 110.4609375 C-28.33869002 111.66154875 -27.60691102 112.86206463 -26.875 114.0625 C-26.51019531 114.66578125 -26.14539063 115.2690625 -25.76953125 115.890625 C-24.24053678 118.39261595 -22.83128646 120.60621354 -20.75 122.6875 C2.44029729 112.32184478 23.39992576 101.09030941 42.12890625 83.65625 C44.12075427 81.80746289 46.16374629 80.05317794 48.25 78.3125 C51.33370831 75.84458898 51.33370831 75.84458898 53.25 72.6875 C46.86824378 73.05648459 43.01196604 75.35262962 37.8125 78.9375 C36.37669789 79.90163137 34.94050139 80.86517567 33.50390625 81.828125 C32.80281738 82.30056641 32.10172852 82.77300781 31.37939453 83.25976562 C29.228388 84.7019906 27.07548933 86.13817995 24.90234375 87.546875 C24.27191162 87.95905273 23.64147949 88.37123047 22.99194336 88.79589844 C21.25 89.6875 21.25 89.6875 18.25 89.6875 C19.36509435 86.34221694 20.05251274 85.80574818 22.78515625 83.76171875 C23.51283203 83.21193359 24.24050781 82.66214844 24.99023438 82.09570312 C25.75658203 81.52787109 26.52292969 80.96003906 27.3125 80.375 C28.05177734 79.81876953 28.79105469 79.26253906 29.55273438 78.68945312 C31.78022267 77.01542649 34.01474601 75.35113765 36.25 73.6875 C37.77002091 72.54883045 39.2895804 71.40954457 40.80859375 70.26953125 C41.80137329 69.52473511 41.80137329 69.52473511 42.81420898 68.76489258 C43.28802002 68.40935303 43.76183105 68.05381348 44.25 67.6875 C42.0272745 64.95183785 40.95592634 63.77032355 37.38671875 63.3515625 C33.6797044 63.74857774 32.45790597 64.62454274 29.6875 67.0625 C28.82640625 67.79210937 27.9653125 68.52171875 27.078125 69.2734375 C25.67820312 70.46839844 25.67820312 70.46839844 24.25 71.6875 C-2.12115637 92.90490246 -33.56885804 105.90385567 -67.75 105.875 C-68.65339111 105.87491943 -69.55678223 105.87483887 -70.48754883 105.87475586 C-91.72967913 105.69766043 -91.72967913 105.69766043 -97.75 102.6875 C-97.75 102.0275 -97.75 101.3675 -97.75 100.6875 C-96.37787354 100.62804199 -96.37787354 100.62804199 -94.97802734 100.56738281 C-70.81287236 99.46993129 -47.85281792 97.34075547 -24.75 89.6875 C-23.71746094 89.36652344 -22.68492187 89.04554688 -21.62109375 88.71484375 C-5.51080182 83.19071496 10.16214249 73.49052815 23.25 62.6875 C24.91598733 61.35331794 26.58246525 60.01974751 28.25 58.6875 C26.65483572 53.90200715 22.57266762 52.11231476 18.5 49.375 C17.68789063 48.79943359 16.87578125 48.22386719 16.0390625 47.63085938 C15.24757813 47.09654297 14.45609375 46.56222656 13.640625 46.01171875 C12.91907227 45.51760498 12.19751953 45.02349121 11.45410156 44.5144043 C9.19867471 43.41910876 9.19867471 43.41910876 6.60839844 44.44067383 C4.20902527 45.62579982 4.20902527 45.62579982 2.125 47.3125 C0.25 48.6875 0.25 48.6875 -2.75 48.6875 C-2.20773019 44.89161134 -0.54872437 43.21538007 2.25 40.6875 C1.59 39.3675 0.93 38.0475 0.25 36.6875 C-3.92245644 37.05565792 -5.91327351 38.590186 -9.02783203 41.26342773 C-20.77303187 50.9756124 -38.01117967 61.41730566 -53.75 61.6875 C-54.41 61.0275 -55.07 60.3675 -55.75 59.6875 C-54.20936658 58.97692214 -52.66739506 58.26924586 -51.125 57.5625 C-50.11566406 57.0984375 -49.10632813 56.634375 -48.06640625 56.15625 C-45.88678085 55.19095065 -43.68572609 54.27242052 -41.46484375 53.40625 C-31.52739065 49.48146944 -23.32254802 43.98941561 -14.75 37.6875 C-13.82960938 37.01332031 -12.90921875 36.33914063 -11.9609375 35.64453125 C-10.21093413 34.3428503 -8.47739677 33.01903501 -6.75 31.6875 C-9.80864844 28.30685713 -9.80864844 28.30685713 -13.53125 25.74609375 C-17.12623967 25.65115564 -19.31800917 28.04273791 -22 30.1875 C-35.77125661 40.56153057 -52.31463386 46.77218868 -69.75 45.6875 C-69.75 45.0275 -69.75 44.3675 -69.75 43.6875 C-69.08057373 43.47657715 -68.41114746 43.2656543 -67.72143555 43.04833984 C-64.62295789 42.06470462 -61.53034017 41.06371371 -58.4375 40.0625 C-57.38498047 39.73121094 -56.33246094 39.39992188 -55.24804688 39.05859375 C-35.59371171 32.64825674 -21.22020631 20.01470295 -8.25 4.30859375 C-3.85763132 -0.4383672 -3.85763132 -0.4383672 0 0 Z M57.0390625 79.22265625 C56.38244629 79.77695312 55.72583008 80.33125 55.04931641 80.90234375 C54.33179199 81.51207031 53.61426758 82.12179687 52.875 82.75 C49.67572756 85.40687292 46.46460514 88.0492058 43.25 90.6875 C42.09951172 91.63278564 42.09951172 91.63278564 40.92578125 92.59716797 C27.96772747 103.11596163 14.23369651 110.81069733 -0.71191406 118.17626953 C-4.83092434 120.22518255 -8.88944909 122.37752673 -12.9375 124.5625 C-14.66033203 125.48675781 -14.66033203 125.48675781 -16.41796875 126.4296875 C-17.18753906 126.84476563 -17.95710938 127.25984375 -18.75 127.6875 C-17.40072455 132.22597198 -15.55840652 136.00682246 -13.125 140.0625 C-12.49335938 141.12210937 -11.86171875 142.18171875 -11.2109375 143.2734375 C-10.72882813 144.07007813 -10.24671875 144.86671875 -9.75 145.6875 C1.28448615 143.82820929 11.35792373 137.69520496 21 132.3125 C22.43641846 131.51924316 22.43641846 131.51924316 23.90185547 130.70996094 C30.55240927 126.93355614 36.38259246 122.57532206 42.25 117.6875 C43.87154568 116.412262 45.49614595 115.14088975 47.125 113.875 C53.09820316 109.0945591 58.68529054 103.93160892 64.25 98.6875 C65.07628906 97.91535156 65.90257812 97.14320313 66.75390625 96.34765625 C67.47449219 95.65542969 68.19507813 94.96320313 68.9375 94.25 C69.56011719 93.65316406 70.18273437 93.05632812 70.82421875 92.44140625 C72.42406316 90.47337847 73.03524358 89.21344457 73.25 86.6875 C71.16886589 84.10386938 71.16886589 84.10386938 68.25 81.6875 C67.45722656 80.97980469 67.45722656 80.97980469 66.6484375 80.2578125 C62.51404719 76.65295002 61.24732491 75.62527064 57.0390625 79.22265625 Z " fill="#6D4D26" transform="translate(335.75,227.3125)"/>
<path d="M0 0 C4.81100025 3.93091746 9.01671656 8.10081201 13.125 12.75 C19.17987846 19.42094251 25.62863476 24.8474714 33 30 C33.87914062 30.62261719 34.75828125 31.24523437 35.6640625 31.88671875 C51.98455896 42.85744522 71.14493032 50.00191467 90.37670898 53.70800781 C92.26337863 54.08142216 94.13415576 54.53353894 96 55 C96.33 55.66 96.66 56.32 97 57 C80.43996068 57.74613444 66.05307636 55.14544764 51 48 C50.08202637 47.58258545 50.08202637 47.58258545 49.14550781 47.15673828 C31.51344142 39.12280759 14.35255589 26.72693862 4 10 C3.58234375 9.33613281 3.1646875 8.67226562 2.734375 7.98828125 C0 3.33333333 0 3.33333333 0 0 Z " fill="#694921" transform="translate(160,245)"/>
<path d="M0 0 C3.66530707 0.59572963 6.58037364 1.61567765 9.88671875 3.29296875 C10.81436035 3.75533936 11.74200195 4.21770996 12.69775391 4.6940918 C13.68437012 5.1869165 14.67098633 5.67974121 15.6875 6.1875 C37.33040306 16.66296068 59.56868552 21.18574939 83 26 C82.67 26.66 82.34 27.32 82 28 C51.72535473 28.73345208 25.73094486 22.40782962 1.4765625 3.4453125 C0.98929688 2.96835937 0.50203125 2.49140625 0 2 C0 1.34 0 0.68 0 0 Z " fill="#6A4A21" transform="translate(177,289)"/>
<path d="M0 0 C3.92024924 3.58035057 6.42797878 7.14070839 8.77734375 11.91796875 C9.11117569 12.57525467 9.44500763 13.23254059 9.78895569 13.90974426 C10.84772827 15.99780822 11.89331226 18.09211006 12.9375 20.1875 C14.31648792 22.93359631 15.701127 25.67678025 17.08984375 28.41796875 C17.42566467 29.08182587 17.7614856 29.74568298 18.10748291 30.42965698 C20.43564791 34.99398635 22.9504539 39.39995073 25.63989258 43.76293945 C27.8684493 47.42839722 29.87315071 51.20738077 31.875 55 C32.2771875 55.74894531 32.679375 56.49789062 33.09375 57.26953125 C36 62.75581952 36 62.75581952 36 65 C31.90924218 63.47065705 29.77780983 60.57915105 27.25 57.1875 C26.81316895 56.60782471 26.37633789 56.02814941 25.92626953 55.4309082 C16.11695299 42.2142389 8.38062736 27.66707712 2.5 12.3125 C2.11690674 11.32382935 2.11690674 11.32382935 1.72607422 10.31518555 C0.4191174 6.76123655 -0.28980489 3.78919892 0 0 Z " fill="#6A4B22" transform="translate(87,229)"/>
<path d="M0 0 C15.18 0 30.36 0 46 0 C46 0.99 46 1.98 46 3 C44.27398621 3.81917642 42.5440353 4.63006016 40.8125 5.4375 C39.84957031 5.88996094 38.88664062 6.34242188 37.89453125 6.80859375 C28.79753836 10.55297004 15.94879753 10.53874277 6.83984375 6.8671875 C1.5620438 4.37956204 1.5620438 4.37956204 -1 3 C-0.67 2.01 -0.34 1.02 0 0 Z " fill="#6E4E27" transform="translate(233,228)"/>
<path d="M0 0 C2.93243426 0.20223685 3.90414777 0.89509397 5.90234375 3.08203125 C8.29166743 6.40572732 10.05129082 9.85760144 11.75 13.5625 C12.08708984 14.28687256 12.42417969 15.01124512 12.77148438 15.75756836 C16.86684077 24.69108493 20.44741458 33.84009827 24 43 C21 43 21 43 19.52734375 41.8125 C10.72660367 31.77922384 -0.29700598 16.95753728 -1.1796875 3.19921875 C-1 1 -1 1 0 0 Z " fill="#6A4A21" transform="translate(100,228)"/>
<path d="M0 0 C2.75628797 2.38149527 3.7215591 4.53384214 4.9375 7.9375 C11.11730999 23.17488224 20.424947 36.43054617 31.56201172 48.42089844 C33.79722675 50.87546055 35.89485551 53.43350708 38 56 C31.17667104 55.22545996 26.97014135 50.36642362 22 46 C20.94039062 45.13761719 20.94039062 45.13761719 19.859375 44.2578125 C9.40345785 35.03450347 2.35479401 19.56642519 0 6 C-0.05067497 4.00064209 -0.06583257 1.99891622 0 0 Z " fill="#6B4B22" transform="translate(120,243)"/>
<path d="M0 0 C4.87923609 -0.1626412 9.33765447 -0.02230691 14.13671875 0.8828125 C19.46518094 1.80647806 24.7832773 2.45299047 30.16015625 3 C30.96393707 3.08234894 31.7677179 3.16469788 32.59585571 3.24954224 C35.9382311 3.58918879 39.28104482 3.92375321 42.62475586 4.25 C45.09568637 4.49270819 47.56540142 4.74564526 50.03515625 5 C50.79135757 5.07089844 51.5475589 5.14179688 52.32667542 5.21484375 C55.94078099 5.59322602 57.91843266 5.94562177 61 8 C58.21109246 10.78890754 49.12835335 9.2461864 45.0625 9.25 C44.33303162 9.25100708 43.60356323 9.25201416 42.85198975 9.25305176 C28.0445625 9.2391592 13.5362293 8.7000934 0 2 C0 1.34 0 0.68 0 0 Z " fill="#6D4C25" transform="translate(206,346)"/>
<path d="M0 0 C4.00293571 0.63306769 7.00340211 2.74255308 10.3125 4.9375 C10.91698975 5.33211426 11.52147949 5.72672852 12.14428711 6.13330078 C17.43342755 9.5960487 22.69219996 13.10662169 27.93676758 16.63647461 C30.5638284 18.400897 33.17987396 20.10203237 35.93359375 21.6640625 C36.61550781 22.10492188 37.29742187 22.54578125 38 23 C38 23.66 38 24.32 38 25 C27.07853346 24.25535455 18.14214153 18.983775 10 12 C9.0925 11.319375 8.185 10.63875 7.25 9.9375 C4.42336513 7.5034533 2.2609541 4.97153968 0 2 C0 1.34 0 0.68 0 0 Z " fill="#604411" transform="translate(197,229)"/>
<path d="M0 0 C0.66 0.33 1.32 0.66 2 1 C1.99815641 1.6813822 1.99631283 2.3627644 1.99441338 3.06479454 C1.95016699 19.67524408 1.91711073 36.28567486 1.89637566 52.89616966 C1.88608077 60.929011 1.87205477 68.96181289 1.84912109 76.99462891 C1.82913231 83.99931924 1.81627058 91.003981 1.81182301 98.00869906 C1.80922489 101.71465063 1.80315579 105.42052049 1.78853989 109.12644577 C1.7723228 113.27232171 1.77202382 117.41805725 1.77294922 121.56396484 C1.76575867 122.78101105 1.75856812 123.99805725 1.75115967 125.25198364 C1.77394672 134.71086567 1.97023868 143.36230233 8 151 C7.505 151.99 7.505 151.99 7 153 C-0.51872135 144.88769539 -0.30325805 137.19446269 -0.3347168 126.46142578 C-0.34566488 125.09256826 -0.35745707 123.72371726 -0.37002563 122.35487366 C-0.40148714 118.65494713 -0.4208244 114.95504854 -0.43764853 111.25503016 C-0.45705463 107.38106535 -0.48675824 103.50717816 -0.51509094 99.63327026 C-0.56107456 93.13542475 -0.59950199 86.63756939 -0.63305664 80.13964844 C-0.67195113 72.61920148 -0.72123787 65.09887938 -0.77638692 57.5785352 C-0.82933491 50.34425374 -0.87654556 43.10994751 -0.92057228 35.87560654 C-0.93932882 32.79506014 -0.95983154 29.71453258 -0.98166466 26.6340065 C-1.00694857 23.01430429 -1.02713459 19.39460876 -1.043293 15.77485466 C-1.05324638 13.80581092 -1.06815493 11.8367942 -1.08317566 9.86778259 C-1.08732483 8.70695663 -1.091474 7.54613068 -1.0957489 6.35012817 C-1.1014474 5.3351079 -1.1071459 4.32008762 -1.11301708 3.27430916 C-1 1 -1 1 0 0 Z " fill="#614016" transform="translate(54,45)"/>
<path d="M0 0 C3.05934051 0.60748376 5.11917799 1.56504349 7.65234375 3.37109375 C8.68500366 4.10247559 8.68500366 4.10247559 9.73852539 4.84863281 C10.46418701 5.37295898 11.18984863 5.89728516 11.9375 6.4375 C12.68443115 6.97084961 13.4313623 7.50419922 14.20092773 8.05371094 C20.92147309 12.88018677 27.49568333 17.8870415 34 23 C38.01840873 21.42433625 40.24453337 18.76299604 43.0625 15.5625 C48.52326642 9.3955292 48.52326642 9.3955292 51 7 C50.41591479 10.10866406 49.55826877 11.84732197 47.41796875 14.1640625 C46.89783203 14.72867187 46.37769531 15.29328125 45.84179688 15.875 C45.29587891 16.4525 44.74996094 17.03 44.1875 17.625 C43.65318359 18.21023438 43.11886719 18.79546875 42.56835938 19.3984375 C39.70994669 22.46428727 37.87673177 24.06163412 34 26 C28.06 21.38 22.12 16.76 16 12 C16.99 13.32 17.98 14.64 19 16 C14.66635072 16 12.58936477 13.3650131 9.5 10.625 C4.91576472 6.60376489 4.91576472 6.60376489 0 3 C0 2.01 0 1.02 0 0 Z " fill="#5C3A0F" transform="translate(112,314)"/>
<path d="M0 0 C0.56698608 0.2914238 1.13397217 0.5828476 1.71813965 0.88310242 C9.45386321 4.66949142 17.69515884 7.33595715 25.84375 10.07421875 C27.48011414 10.6281707 27.48011414 10.6281707 29.14953613 11.1933136 C32.59881966 12.36063857 36.04931388 13.52432841 39.5 14.6875 C42.97908976 15.86184892 46.4579049 17.03699438 49.93615723 18.21382141 C52.09245249 18.94322791 54.24925747 19.67112963 56.40661621 20.39738464 C57.37522583 20.72475113 58.34383545 21.05211761 59.34179688 21.3894043 C60.19543823 21.67712204 61.04907959 21.96483978 61.92858887 22.26127625 C64 23 64 23 66 24 C66 24.66 66 25.32 66 26 C62.37 25.67 58.74 25.34 55 25 C55 24.01 55 23.02 55 22 C53.90207375 21.79615692 53.90207375 21.79615692 52.78196716 21.5881958 C50.27148563 21.05740064 47.9218324 20.39464479 45.48852539 19.58886719 C44.62735611 19.3047699 43.76618683 19.02067261 42.87892151 18.72796631 C41.96110397 18.42070618 41.04328644 18.11344604 40.09765625 17.796875 C39.14233505 17.47720764 38.18701385 17.15754028 37.20274353 16.82818604 C35.18570627 16.15088201 33.16932652 15.47161717 31.15356445 14.79052734 C29.09661987 14.09810986 27.03769084 13.41155919 24.97680664 12.73095703 C21.99173022 11.74508213 19.01303703 10.74174673 16.03515625 9.734375 C15.11936295 9.43521179 14.20356964 9.13604858 13.26002502 8.82781982 C7.87481087 6.97917312 4.08095542 5.00579429 0 1 C0 0.67 0 0.34 0 0 Z " fill="#644418" transform="translate(169,349)"/>
<path d="M0 0 C4.81085623 3.93079978 9.01757747 8.10014884 13.125 12.75 C19.16395271 19.42253906 25.68628731 24.79279406 33 30 C33.78246094 30.56847656 34.56492188 31.13695312 35.37109375 31.72265625 C36.90364542 32.82967043 38.44950558 33.91825971 40 35 C39.01 35.495 39.01 35.495 38 36 C29.58030429 30.25816609 21.80957463 24.28408733 14.42578125 17.25 C12.01824052 14.89722606 12.01824052 14.89722606 9 13 C9 13.99 9 14.98 9 16 C0 5.33333333 0 5.33333333 0 0 Z " fill="#5E3D16" transform="translate(160,245)"/>
<path d="M0 0 C7.59 0 15.18 0 23 0 C23 0.99 23 1.98 23 3 C21.27398621 3.81917642 19.5440353 4.63006016 17.8125 5.4375 C16.84957031 5.88996094 15.88664062 6.34242188 14.89453125 6.80859375 C5.79753836 10.55297004 -7.05120247 10.53874277 -16.16015625 6.8671875 C-21.4379562 4.37956204 -21.4379562 4.37956204 -24 3 C-24 2.34 -24 1.68 -24 1 C-21.50382938 1.98955335 -19.02128501 2.9906537 -16.5625 4.0703125 C-4.30234871 9.11641135 5.76409007 7.30273756 18 3 C12.06 2.34 6.12 1.68 0 1 C0 0.67 0 0.34 0 0 Z " fill="#603E15" transform="translate(256,228)"/>
<path d="M0 0 C2.4375 0.8125 2.4375 0.8125 5 2 C5.33 2.99 5.66 3.98 6 5 C7.53630544 6.26326346 7.53630544 6.26326346 9.45703125 7.33984375 C10.50793945 7.9750293 10.50793945 7.9750293 11.58007812 8.62304688 C12.31677734 9.05681641 13.05347656 9.49058594 13.8125 9.9375 C22.58830737 15.14057868 22.58830737 15.14057868 26 19 C15.64337051 17.48808329 6.41690078 9.95630879 0 2 C0 1.34 0 0.68 0 0 Z " fill="#6D4C25" transform="translate(201,231)"/>
<path d="M0 0 C4.82520048 0.47980418 7.93859505 2.84257901 11.6875 5.6875 C16.73017832 9.42182936 21.80378256 12.80144888 27.3046875 15.84375 C27.86414063 16.2253125 28.42359375 16.606875 29 17 C29 17.66 29 18.32 29 19 C25.625 18.75 25.625 18.75 22 18 C21.32330899 16.67172612 20.65797661 15.33764308 20 14 C17.9221543 12.29507881 17.9221543 12.29507881 15.4296875 10.80078125 C14.53378906 10.23166016 13.63789063 9.66253906 12.71484375 9.07617188 C11.77769531 8.49416016 10.84054688 7.91214844 9.875 7.3125 C8.01639127 6.14484745 6.15951333 4.97443367 4.3046875 3.80078125 C3.47952637 3.28684814 2.65436523 2.77291504 1.80419922 2.2434082 C1.20881348 1.8330835 0.61342773 1.42275879 0 1 C0 0.67 0 0.34 0 0 Z " fill="#64441B" transform="translate(206,235)"/>
<path d="M0 0 C4.04324649 3.67949421 6.5013049 7.2228036 8.875 12.125 C9.1946875 12.74503906 9.514375 13.36507812 9.84375 14.00390625 C12.12679248 18.61962256 12.12679248 18.61962256 11 22 C10.66226563 21.36191406 10.32453125 20.72382813 9.9765625 20.06640625 C9.53054687 19.24011719 9.08453125 18.41382813 8.625 17.5625 C8.18414062 16.73878906 7.74328125 15.91507813 7.2890625 15.06640625 C6.16581441 12.86533422 6.16581441 12.86533422 4 12 C4 11.34 4 10.68 4 10 C3.34 10 2.68 10 2 10 C0.39644899 6.49223216 -0.22036864 3.85645121 0 0 Z " fill="#60401B" transform="translate(87,229)"/>
<path d="M0 0 C4.75855979 1.15976716 7.05696725 2.75549185 10.0625 6.5625 C5.0625 4.5625 5.0625 4.5625 2.6875 3.125 C0.12318429 2.27330212 0.12318429 2.27330212 -1.703125 3.55078125 C-2.92667974 4.46330632 -4.12385687 5.41249427 -5.2890625 6.3984375 C-6.9375 7.5625 -6.9375 7.5625 -9.9375 7.5625 C-9.57549859 5.02849016 -8.83272818 3.38939873 -7.5 1.1875 C-4.43003539 -0.75930682 -3.50738346 -0.55846731 0 0 Z " fill="#65431B" transform="translate(342.9375,268.4375)"/>
<path d="M0 0 C0.680625 0.28875 1.36125 0.5775 2.0625 0.875 C1.37637652 4.74736814 -0.41299772 7.74758235 -2.375 11.125 C-2.99246094 12.20265625 -3.60992187 13.2803125 -4.24609375 14.390625 C-4.80425781 15.21046875 -5.36242187 16.0303125 -5.9375 16.875 C-6.5975 16.875 -7.2575 16.875 -7.9375 16.875 C-6.56462658 13.17623909 -4.87394547 9.9235524 -2.8125 6.5625 C-2.27367187 5.67949219 -1.73484375 4.79648438 -1.1796875 3.88671875 C-0.76976562 3.22285156 -0.35984375 2.55898437 0.0625 1.875 C-4.27920523 4.2586813 -8.1439129 6.65619883 -11.9375 9.875 C-9.73112154 4.88619352 -5.81117571 -0.24728407 0 0 Z " fill="#65441D" transform="translate(335.9375,227.125)"/>
<path d="M0 0 C2.0625 0.4375 2.0625 0.4375 4 1 C3.01 1.495 3.01 1.495 2 2 C1.67 9.26 1.34 16.52 1 24 C0.34 24 -0.32 24 -1 24 C-1.02887236 20.18751574 -1.04675492 16.3750593 -1.0625 12.5625 C-1.07087891 11.47388672 -1.07925781 10.38527344 -1.08789062 9.26367188 C-1.09111328 8.22919922 -1.09433594 7.19472656 -1.09765625 6.12890625 C-1.10289307 5.17056885 -1.10812988 4.21223145 -1.11352539 3.22485352 C-1 1 -1 1 0 0 Z " fill="#66451C" transform="translate(301,335)"/>
<path d="M0 0 C3.72915017 -0.02912348 7.4582709 -0.04684037 11.1875 -0.0625 C12.77014648 -0.07506836 12.77014648 -0.07506836 14.38476562 -0.08789062 C15.91713867 -0.09272461 15.91713867 -0.09272461 17.48046875 -0.09765625 C18.41785889 -0.10289307 19.35524902 -0.10812988 20.32104492 -0.11352539 C22.98049477 -0.00082657 25.40920573 0.40623351 28 1 C28 1.33 28 1.66 28 2 C23.70942047 2.25398309 19.41776866 2.47398533 15.125 2.6875 C13.29001953 2.79674805 13.29001953 2.79674805 11.41796875 2.90820312 C10.25136719 2.96298828 9.08476562 3.01777344 7.8828125 3.07421875 C6.80402832 3.13182373 5.72524414 3.18942871 4.61376953 3.2487793 C3.31995361 3.12563354 3.31995361 3.12563354 2 3 C1.34 2.01 0.68 1.02 0 0 Z " fill="#684820" transform="translate(233,228)"/>
<path d="M0 0 C2.4294516 3.6441774 2.16179575 5.71241272 2 10 C0.68 9.67 -0.64 9.34 -2 9 C-2.66 11.97 -3.32 14.94 -4 18 C-4.66 18 -5.32 18 -6 18 C-3.52427184 3.52427184 -3.52427184 3.52427184 0 0 Z M-1 6 C0 8 0 8 0 8 Z " fill="#603F18" transform="translate(196,33)"/>
<path d="M0 0 C3.18612708 3.85634799 5.37030973 8.21975152 7.6875 12.625 C8.10322266 13.40101563 8.51894531 14.17703125 8.94726562 14.9765625 C9.33978516 15.7190625 9.73230469 16.4615625 10.13671875 17.2265625 C10.49467529 17.90283691 10.85263184 18.57911133 11.22143555 19.27587891 C12 21 12 21 12 23 C9.54237565 22.02719036 8.25102738 21.42012222 6.875 19.1171875 C6.58625 18.37726563 6.2975 17.63734375 6 16.875 C4.44859373 13.05189168 2.7083836 9.44576529 0.734375 5.82421875 C0 4 0 4 0 0 Z " fill="#613F17" transform="translate(111,271)"/>
<path d="M0 0 C7.48291572 6.15034169 7.48291572 6.15034169 10 10 C9.34 10 8.68 10 8 10 C8.66 11.65 9.32 13.3 10 15 C9.01 15.495 9.01 15.495 8 16 C0 4.28571429 0 4.28571429 0 0 Z " fill="#63441B" transform="translate(160,245)"/>
<path d="M0 0 C8.37357576 3.02215322 14.29728284 8.56667287 19 16 C15.3353521 14.40103806 12.55624414 12.11916577 9.5 9.5625 C5.65872611 6.34661704 5.65872611 6.34661704 1.65625 3.33984375 C1.1096875 2.89769531 0.563125 2.45554687 0 2 C0 1.34 0 0.68 0 0 Z " fill="#64441A" transform="translate(112,315)"/>
<path d="M0 0 C0.66 0 1.32 0 2 0 C1.47731534 2.76276177 0.89130413 5.3260876 0 8 C-0.7425 8.28875 -1.485 8.5775 -2.25 8.875 C-5.1952226 9.87295037 -5.1952226 9.87295037 -7.5 12.5 C-9.9810277 14.9810277 -11.69871953 15.96245471 -15 17 C-15 16.34 -15 15.68 -15 15 C-14.10796875 14.63261719 -13.2159375 14.26523437 -12.296875 13.88671875 C-7.95446785 11.40166821 -5.88260399 8.17950278 -3.08203125 4.11914062 C-2.09324336 2.71807267 -1.05062946 1.35531201 0 0 Z " fill="#674A21" transform="translate(413,254)"/>
<path d="M0 0 C3.99713628 1.33237876 4.9968224 3.84459291 7 7.3125 C9.17657316 11.00694654 11.33589723 14.62824493 14 18 C13.67 18.66 13.34 19.32 13 20 C7.61141044 13.71554072 3.35506828 7.5811639 0 0 Z " fill="#614015" transform="translate(130,265)"/>
<path d="M0 0 C2.96082171 3.47652039 4.5449593 7.35678468 6.1875 11.5625 C6.46013672 12.23474609 6.73277344 12.90699219 7.01367188 13.59960938 C8.18137285 16.54666423 9 18.80156144 9 22 C8.34 22 7.68 22 7 22 C6.01083967 19.64960987 5.03363319 17.29533139 4.0625 14.9375 C3.78470703 14.28072266 3.50691406 13.62394531 3.22070312 12.94726562 C1.44318052 8.59983081 0.4802742 4.67507417 0 0 Z " fill="#63411B" transform="translate(57,48)"/>
<path d="M0 0 C0.66 0 1.32 0 2 0 C1.67 1.65 1.34 3.3 1 5 C-11.87 4.505 -11.87 4.505 -25 4 C-25 3.67 -25 3.34 -25 3 C-16.75 3 -8.5 3 0 3 C0 2.01 0 1.02 0 0 Z " fill="#5F4312" transform="translate(89,202)"/>
<path d="M0 0 C0.66 0.33 1.32 0.66 2 1 C-0.62467634 2.4797435 -3.24972493 3.95881943 -5.875 5.4375 C-6.62136719 5.85837891 -7.36773437 6.27925781 -8.13671875 6.71289062 C-9.20986328 7.31713867 -9.20986328 7.31713867 -10.3046875 7.93359375 C-10.96452637 8.30540771 -11.62436523 8.67722168 -12.30419922 9.06030273 C-13.52114651 9.73465202 -14.75558603 10.37779302 -16 11 C-16.99 10.34 -17.98 9.68 -19 9 C-15.88112823 7.46635461 -12.75402378 5.95031107 -9.625 4.4375 C-8.73554688 3.99986328 -7.84609375 3.56222656 -6.9296875 3.11132812 C-6.07890625 2.70205078 -5.228125 2.29277344 -4.3515625 1.87109375 C-3.56604004 1.48880615 -2.78051758 1.10651855 -1.97119141 0.71264648 C-1.32069824 0.47747314 -0.67020508 0.2422998 0 0 Z " fill="#67491B" transform="translate(343,337)"/>
<path d="M0 0 C0.33 0.99 0.66 1.98 1 3 C-3.29 7.62 -7.58 12.24 -12 17 C-12.66 16.67 -13.32 16.34 -14 16 C-13.15695313 15.09636719 -12.31390625 14.19273437 -11.4453125 13.26171875 C-10.33843161 12.07041474 -9.23166684 10.87900285 -8.125 9.6875 C-7.56941406 9.09259766 -7.01382813 8.49769531 -6.44140625 7.88476562 C-5.90644531 7.30791016 -5.37148437 6.73105469 -4.8203125 6.13671875 C-4.32805176 5.60780029 -3.83579102 5.07888184 -3.32861328 4.53393555 C-1.79418204 2.82718765 -1.79418204 2.82718765 0 0 Z " fill="#61411B" transform="translate(162,321)"/>
<path d="M0 0 C3.55780196 0.60990891 6.6828589 1.5783681 10 3 C9.67 3.66 9.34 4.32 9 5 C8.34 5 7.68 5 7 5 C6.67 5.66 6.34 6.32 6 7 C3.95880212 5.38405168 1.95927063 3.7143618 0 2 C0 1.34 0 0.68 0 0 Z " fill="#62411E" transform="translate(177,289)"/>
<path d="M0 0 C0.33 0.66 0.66 1.32 1 2 C1.99 2.33 2.98 2.66 4 3 C5.3125 5.875 5.3125 5.875 6 9 C5.01 10.485 5.01 10.485 4 12 C3.32645501 10.56570999 2.66140299 9.12742943 2 7.6875 C1.62875 6.88699219 1.2575 6.08648437 0.875 5.26171875 C0 3 0 3 0 0 Z " fill="#705028" transform="translate(90,239)"/>
<path d="M0 0 C1.32 0 2.64 0 4 0 C4 0.99 4 1.98 4 3 C3.40703125 3.06058594 2.8140625 3.12117187 2.203125 3.18359375 C-0.94387999 4.34977113 -1.64120489 6.17398151 -3.25 9.0625 C-3.77078125 9.98160156 -4.2915625 10.90070313 -4.828125 11.84765625 C-5.40820312 12.91306641 -5.40820312 12.91306641 -6 14 C-6.33 13.34 -6.66 12.68 -7 12 C-5.70703125 9.1796875 -5.70703125 9.1796875 -3.8125 5.875 C-3.20019531 4.77929688 -2.58789062 3.68359375 -1.95703125 2.5546875 C-1.31121094 1.71164063 -0.66539062 0.86859375 0 0 Z " fill="#66451B" transform="translate(350,228)"/>
<path d="M0 0 C3.73665662 0.55023295 5.18446617 1.94502744 7.5625 4.8125 C8.43068359 5.84310547 8.43068359 5.84310547 9.31640625 6.89453125 C10.9203625 8.90040693 12.47324382 10.93493465 14 13 C11 13 11 13 9.31640625 11.42578125 C8.44822266 10.37970703 8.44822266 10.37970703 7.5625 9.3125 C6.9540625 8.58675781 6.345625 7.86101562 5.71875 7.11328125 C1.62162162 2.07567568 1.62162162 2.07567568 0 0 Z " fill="#603F18" transform="translate(144,286)"/>
<path d="M0 0 C0.99 0.33 1.98 0.66 3 1 C1.75160501 2.105981 0.50120766 3.20970201 -0.75 4.3125 C-1.44609375 4.92738281 -2.1421875 5.54226562 -2.859375 6.17578125 C-8.52034261 11 -8.52034261 11 -11 11 C-11 10.34 -11 9.68 -11 9 C-9.35546875 7.59765625 -9.35546875 7.59765625 -7.1875 6.0625 C-4.56469417 4.19452718 -2.21550645 2.34130807 0 0 Z " fill="#63431E" transform="translate(313,247)"/>
<path d="M0 0 C0.66 0.33 1.32 0.66 2 1 C0.625 2.5 0.625 2.5 -1 4 C-1.66 4 -2.32 4 -3 4 C-3.226875 4.61875 -3.45375 5.2375 -3.6875 5.875 C-5.37929835 8.61410209 -6.99244161 9.05024472 -10 10 C-8.5741914 6.54804233 -6.90253666 4.8985744 -3.875 2.75 C-3.15054687 2.22921875 -2.42609375 1.7084375 -1.6796875 1.171875 C-1.12539063 0.78515625 -0.57109375 0.3984375 0 0 Z " fill="#65461E" transform="translate(377,297)"/>
<path d="M0 0 C0.99 0.33 1.98 0.66 3 1 C1.40089132 2.00806851 -0.20448262 3.00620385 -1.8125 4 C-3.15248047 4.8353125 -3.15248047 4.8353125 -4.51953125 5.6875 C-7 7 -7 7 -10 7 C-9.67 6.01 -9.34 5.02 -9 4 C-5.5625 2.375 -5.5625 2.375 -2 1 C-1.34 0.67 -0.68 0.34 0 0 Z " fill="#755633" transform="translate(364,310)"/>
<path d="M0 0 C1.8125 0.1875 1.8125 0.1875 4 1 C5.56840126 3.26546849 6.77072645 5.5414529 8 8 C7.01 8 6.02 8 5 8 C0 2.65116279 0 2.65116279 0 0 Z " fill="#5A3911" transform="translate(197,229)"/>
<path d="M0 0 C3.39192363 0.59283621 5.2107757 1.76743189 7.75 4.0625 C8.67039063 4.88427734 8.67039063 4.88427734 9.609375 5.72265625 C10.29773438 6.35494141 10.29773438 6.35494141 11 7 C7.41584854 7 6.58796261 6.21108216 3.8125 4.0625 C3.09707031 3.51722656 2.38164062 2.97195313 1.64453125 2.41015625 C1.10183594 1.94480469 0.55914062 1.47945313 0 1 C0 0.67 0 0.34 0 0 Z " fill="#604118" transform="translate(131,332)"/>
<path d="M0 0 C2.97 0.33 5.94 0.66 9 1 C8.67 1.66 8.34 2.32 8 3 C5.69 3 3.38 3 1 3 C0.67 2.01 0.34 1.02 0 0 Z " fill="#73522D" transform="translate(258,352)"/>
<path d="M0 0 C2.475 0.495 2.475 0.495 5 1 C4.67 2.65 4.34 4.3 4 6 C2.68 5.34 1.36 4.68 0 4 C0 2.68 0 1.36 0 0 Z " fill="#5C4120" transform="translate(214,346)"/>
<path d="M0 0 C0.66 0.33 1.32 0.66 2 1 C0.8141763 4.37503669 -0.27573689 6.64722731 -3 9 C-3.66 8.67 -4.32 8.34 -5 8 C-4.360625 7.236875 -3.72125 6.47375 -3.0625 5.6875 C-0.85767219 3.11753287 -0.85767219 3.11753287 0 0 Z " fill="#64411A" transform="translate(390,297)"/>
</svg>
